<?xml version="1.0" standalone="no"?>
<!DOCTYPE svg PUBLIC "-//W3C//DTD SVG 20010904//EN"
 "http://www.w3.org/TR/2001/REC-SVG-20010904/DTD/svg10.dtd">
<svg version="1.0" xmlns="http://www.w3.org/2000/svg"
 width="900.000000pt" height="900.000000pt" viewBox="0 0 900.000000 900.000000"
 preserveAspectRatio="xMidYMid meet">
<metadata>
Created by potrace 1.11, written by Peter Selinger 2001-2013
</metadata>
<g transform="translate(0.000000,900.000000) scale(0.100000,-0.100000)"
fill="#000000" stroke="none">
<path d="M2851 7722 c-148 -153 -383 -550 -494 -832 -146 -369 -177 -743 -86
-1035 l21 -68 -240 -241 c-132 -133 -245 -251 -251 -263 -6 -12 -11 -32 -11
-45 0 -17 168 -191 653 -676 358 -359 686 -681 727 -714 98 -80 227 -163 329
-213 68 -33 81 -43 77 -60 -13 -56 -17 -234 -6 -342 25 -270 107 -501 261
-733 53 -82 145 -178 642 -677 403 -404 589 -584 608 -588 16 -4 39 0 56 9 37
19 1117 1105 1169 1174 25 34 73 77 134 120 122 85 344 307 432 432 134 189
252 460 298 687 37 185 41 320 38 1250 l-3 891 -24 26 -24 26 -303 0 c-166 0
-310 -3 -319 -6 -19 -8 -45 -55 -45 -83 0 -11 12 -33 26 -50 l26 -31 244 0
244 0 0 -867 c0 -864 -3 -964 -36 -1128 -50 -248 -177 -507 -350 -716 -95
-114 -95 -114 -63 9 72 281 62 599 -27 868 -31 94 -88 221 -110 245 -42 46
-124 26 -144 -36 -10 -31 -8 -42 28 -122 86 -190 122 -360 122 -568 0 -219
-47 -419 -141 -606 -99 -199 -157 -264 -768 -874 l-441 -440 -496 495 c-591
590 -632 638 -730 845 -91 192 -127 358 -128 582 -1 83 1 154 4 156 3 3 41 -5
85 -18 530 -153 1146 -29 1586 317 46 37 382 365 747 730 619 620 662 666 662
698 0 31 -21 55 -251 286 l-251 252 20 63 c43 132 55 231 49 419 -6 202 -25
306 -91 505 -97 291 -262 595 -477 881 -88 117 -131 138 -183 92 -15 -13 -128
-216 -252 -453 -124 -236 -229 -433 -233 -438 -4 -4 -46 11 -94 33 -464 217
-1043 217 -1515 -1 -65 -30 -88 -36 -94 -27 -4 7 -110 208 -235 446 -236 449
-245 462 -304 462 -14 0 -41 -19 -68 -48z m2942 -324 c357 -539 501 -1044 405
-1426 l-11 -43 -356 353 c-203 203 -391 380 -437 414 l-81 59 145 275 c204
389 253 480 257 480 2 0 37 -51 78 -112z m-2685 -260 c105 -200 192 -368 194
-374 2 -6 -35 -40 -82 -75 -47 -35 -240 -217 -432 -408 -192 -189 -350 -342
-354 -339 -14 15 -33 174 -34 280 -1 342 143 739 420 1158 44 66 84 120 89
120 5 0 95 -163 199 -362z m1482 -288 c285 -46 562 -178 792 -377 46 -40 342
-331 658 -648 l575 -575 -640 -639 c-587 -585 -649 -644 -749 -710 -311 -206
-620 -293 -984 -278 -364 16 -700 146 -982 383 -41 34 -339 327 -663 651
l-587 588 642 641 c592 590 652 647 750 711 365 240 757 323 1188 253z"/>
<path d="M3420 5231 c-40 -21 -80 -83 -80 -125 0 -49 36 -110 79 -134 101 -57
221 12 221 127 0 116 -118 187 -220 132z"/>
<path d="M4891 5232 c-48 -24 -73 -62 -78 -119 -5 -61 20 -110 73 -140 98 -56
211 3 221 116 10 119 -109 198 -216 143z"/>
<path d="M4230 4770 c-19 -10 -64 -48 -100 -84 l-64 -66 114 -115 c69 -68 123
-114 135 -115 13 0 59 42 129 116 l109 116 -69 69 c-37 38 -83 76 -100 84 -43
20 -111 18 -154 -5z"/>
</g>
</svg>
